<?xml version="1.0" encoding="iso-8859-1"?>
<!-- Generator: Adobe Illustrator 19.0.0, SVG Export Plug-In . SVG Version: 6.00 Build 0)  -->
<svg version="1.1" id="Capa_1" xmlns="http://www.w3.org/2000/svg" xmlns:xlink="http://www.w3.org/1999/xlink" x="0px" y="0px"
	 viewBox="0 0 512 512" style="enable-background:new 0 0 512 512;" xml:space="preserve">
<path style="fill:#76FFD9;" d="M472.103,63.808H39.638c-17.049,0-30.87,13.821-30.87,30.87v322.641
	c0,17.049,13.821,30.87,30.87,30.87h432.465c17.049,0,30.87-13.821,30.87-30.87V94.679
	C502.974,77.629,489.152,63.808,472.103,63.808z"/>
<rect x="73.751" y="99.504" style="fill:#FFFFFF;" width="364.245" height="312.998"/>
<polygon style="fill:#FFC843;" points="255.871,155.025 170.001,255.999 211.323,255.999 211.323,356.974 300.418,356.974 
	300.418,255.999 341.739,255.999 "/>
<path style="fill:#434C54;" d="M472.233,54.912H39.767C17.839,54.912,0,72.751,0,94.679v322.641
	c0,21.927,17.839,39.767,39.767,39.767h432.465c21.928,0,39.767-17.84,39.767-39.767V94.679
	C512,72.751,494.161,54.912,472.233,54.912z M494.206,417.321c0,12.115-9.858,21.973-21.973,21.973H39.767
	c-12.117,0-21.973-9.858-21.973-21.973V94.679c0-12.115,9.858-21.973,21.973-21.973h432.465c12.117,0,21.973,9.858,21.973,21.973
	L494.206,417.321L494.206,417.321z"/>
<g>
	<path style="fill:#00C395;" d="M40.48,214.186c-4.915,0-8.897,3.984-8.897,8.897v65.835c0,4.914,3.982,8.897,8.897,8.897
		s8.897-3.984,8.897-8.897v-65.835C49.377,218.169,45.395,214.186,40.48,214.186z"/>
	<circle style="fill:#00C395;" cx="471.081" cy="255.997" r="8.897"/>
</g>
<g>
</g>
<g>
</g>
<g>
</g>
<g>
</g>
<g>
</g>
<g>
</g>
<g>
</g>
<g>
</g>
<g>
</g>
<g>
</g>
<g>
</g>
<g>
</g>
<g>
</g>
<g>
</g>
<g>
</g>
</svg>
